<?xml version="1.0" encoding="UTF-8"?>
<svg xmlns="http://www.w3.org/2000/svg" width="960" height="670" viewBox="0 0 960 670">
<defs>
<style>
svg { font-family: sans-serif; }
</style>
<marker id="hollowTriangle" markerWidth="12" markerHeight="12" refX="10" refY="5" orient="auto">
  <path d="M0,0 L10,5 L0,10 Z" fill="#ffffff" stroke="#374151" stroke-width="1"/>
</marker>
<marker id="filledArrow" markerWidth="10" markerHeight="8" refX="8" refY="4" orient="auto">
  <path d="M0,0 L8,4 L0,8 Z" fill="#374151"/>
</marker>
<marker id="openArrow" markerWidth="10" markerHeight="8" refX="8" refY="4" orient="auto">
  <path d="M0,0 L8,4 L0,8" fill="none" stroke="#6b7280" stroke-width="1.2"/>
</marker>
<marker id="exceptionArrow" markerWidth="10" markerHeight="8" refX="8" refY="4" orient="auto">
  <path d="M0,0 L8,4 L0,8 Z" fill="#dc2626"/>
</marker>
</defs>
<rect width="960" height="670" fill="#f9fafb"/>
<line x1="480" y1="320" x2="480" y2="440" stroke="#1d4ed8" stroke-width="1.6" stroke-dasharray="8,4" marker-end="url(#hollowTriangle)"/>
<text x="480" y="374" text-anchor="middle" font-family="sans-serif" font-size="10" fill="#1d4ed8" font-style="italic">implements</text>
<line x1="480" y1="130" x2="480" y2="250" stroke="#374151" stroke-width="1.6" marker-end="url(#hollowTriangle)"/>
<text x="480" y="184" text-anchor="middle" font-family="sans-serif" font-size="10" fill="#374151" font-style="italic">extends</text>
<g id="Cargo">
  <rect x="390" y="250" width="180" height="70" rx="6" fill="#ffffff" stroke="#374151" stroke-width="1.8"/>
  <text x="480" y="285" text-anchor="middle" dominant-baseline="central" font-family="sans-serif" font-size="13" font-weight="bold" fill="#1f2937">Cargo</text>
</g>
<g id="ShippingUnit">
  <rect x="390" y="440" width="180" height="70" rx="6" fill="#dbeafe" stroke="#1d4ed8" stroke-width="1.8"/>
  <text x="480" y="464.5" text-anchor="middle" font-family="sans-serif" font-size="10" fill="#1d4ed8" font-style="italic">«interface»</text>
  <text x="480" y="485.5" text-anchor="middle" dominant-baseline="central" font-family="sans-serif" font-size="13" font-weight="bold" fill="#1f2937">ShippingUnit</text>
</g>
<g id="ExpressCargo">
  <rect x="390" y="60" width="180" height="70" rx="6" fill="#ffffff" stroke="#374151" stroke-width="1.8"/>
  <text x="480" y="95" text-anchor="middle" dominant-baseline="central" font-family="sans-serif" font-size="13" font-weight="bold" fill="#1f2937">ExpressCargo</text>
</g>
<rect x="724" y="570" width="220" height="100" rx="6" fill="#ffffff" stroke="#d1d5db" stroke-width="1"/>
<text x="740" y="590" font-family="sans-serif" font-size="11" font-weight="bold" fill="#374151">Legend</text>
<line x1="740" y1="614" x2="776" y2="614" stroke="#1d4ed8" stroke-width="2" stroke-dasharray="8,4" marker-end="url(#hollowTriangle)"/>
<text x="784" y="618" font-family="sans-serif" font-size="11" fill="#374151">implements</text>
<line x1="740" y1="638" x2="776" y2="638" stroke="#374151" stroke-width="2" marker-end="url(#hollowTriangle)"/>
<text x="784" y="642" font-family="sans-serif" font-size="11" fill="#374151">extends</text>
</svg>